<?xml version="1.0" encoding="utf-8" standalone="yes"?>
<!DOCTYPE svg PUBLIC "-//W3C//DTD SVG 1.1//EN" "http://www.w3.org/Graphics/SVG/1.1/DTD/svg11.dtd">
<svg style="fill:none;stroke:none;fill-rule:evenodd;clip-rule:evenodd;stroke-linecap:round;stroke-linejoin:round;stroke-miterlimit:1.5;" version="1.1" xmlns="http://www.w3.org/2000/svg" xmlns:xlink="http://www.w3.org/1999/xlink" width="1032" height="564" viewBox="0 0 1032 564"><style class="text-font-style fontImports" data-font-family="Roboto">@import url(https://fonts.googleapis.com/css2?family=Roboto:wght@400;700&amp;amp;display=block);</style><g id="items" style="isolation: isolate"><g id="blend" style="mix-blend-mode: normal"><g id="g-root-cp_1_g-1_1uqjzx8x3qqde-fill" data-item-order="-460474" transform="translate(14, 164)"><g id="cp_1_g-1_1uqjzx8x3qqde-fill-merged" stroke="none" fill="#4f91fc" fill-opacity="1"><g><path d="M82 10 H139.6L154 34L139.6 58 H82L96.4 34L82 10 M38.8 10 H67.6L82 34L67.6 58 H38.8L53.2 34L38.8 10 M10 10 H24.4L38.8 34L24.4 58 H10L24.4 34L10 10 M82 34 H53.2 M38.8 34 H24.4 M96.4 34 H154"></path></g></g></g><g id="g-root-cp_1_g-1_1uqjzx8x3qqde-stroke" data-item-order="-460474" transform="translate(14, 164)"><g id="cp_1_g-1_1uqjzx8x3qqde-stroke" fill="none" stroke-linecap="round" stroke-linejoin="round" stroke-miterlimit="4" stroke="#2c2c2c" stroke-width="2" stroke-opacity="1"><g><path d="M 82 10L 139.6 10L 154 34L 139.6 58L 82 58L 96.4 34L 82 10ZM 38.8 10L 67.6 10L 82 34L 67.6 58L 38.8 58L 53.2 34L 38.8 10ZM 10 10L 24.4 10L 38.8 34L 24.4 58L 10 58L 24.4 34L 10 10ZM 82 34L 53.2 34M 38.8 34L 24.4 34M 96.4 34L 154 34M 82 70L 82 154"></path></g></g></g><g id="g-root-cp_2_g-2_1lvjgrgx3qo0b-fill" data-item-order="-460458" transform="translate(182, 164)"><g id="cp_2_g-2_1lvjgrgx3qo0b-fill-merged" stroke="none" fill="#1ac3fb" fill-opacity="1"><g><path d="M82 10 H139.6L154 34L139.6 58 H82L96.4 34L82 10 M38.8 10 H67.6L82 34L67.6 58 H38.8L53.2 34L38.8 10 M10 10 H24.4L38.8 34L24.4 58 H10L24.4 34L10 10 M82 34 H53.2 M38.8 34 H24.4 M96.4 34 H154"></path></g></g></g><g id="g-root-cp_2_g-2_1lvjgrgx3qo0b-stroke" data-item-order="-460458" transform="translate(182, 164)"><g id="cp_2_g-2_1lvjgrgx3qo0b-stroke" fill="none" stroke-linecap="round" stroke-linejoin="round" stroke-miterlimit="4" stroke="#2c2c2c" stroke-width="2" stroke-opacity="1"><g><path d="M 82 10L 139.6 10L 154 34L 139.6 58L 82 58L 96.4 34L 82 10ZM 38.8 10L 67.6 10L 82 34L 67.6 58L 38.8 58L 53.2 34L 38.8 10ZM 10 10L 24.4 10L 38.8 34L 24.4 58L 10 58L 24.4 34L 10 10ZM 82 34L 53.2 34M 38.8 34L 24.4 34M 96.4 34L 154 34M 82 70L 82 226"></path></g></g></g><g id="g-root-cp_3_g-3_1hfpyn0x3qosk-fill" data-item-order="-460442" transform="translate(350, 164)"><g id="cp_3_g-3_1hfpyn0x3qosk-fill-merged" stroke="none" fill="#43dd93" fill-opacity="1"><g><path d="M82 10 H139.6L154 34L139.6 58 H82L96.4 34L82 10 M38.8 10 H67.6L82 34L67.6 58 H38.8L53.2 34L38.8 10 M10 10 H24.4L38.8 34L24.4 58 H10L24.4 34L10 10 M82 34 H53.2 M38.8 34 H24.4 M96.4 34 H154"></path></g></g></g><g id="g-root-cp_3_g-3_1hfpyn0x3qosk-stroke" data-item-order="-460442" transform="translate(350, 164)"><g id="cp_3_g-3_1hfpyn0x3qosk-stroke" fill="none" stroke-linecap="round" stroke-linejoin="round" stroke-miterlimit="4" stroke="#2c2c2c" stroke-width="2" stroke-opacity="1"><g><path d="M 82 10L 139.6 10L 154 34L 139.6 58L 82 58L 96.4 34L 82 10ZM 38.8 10L 67.6 10L 82 34L 67.6 58L 38.8 58L 53.2 34L 38.8 10ZM 10 10L 24.4 10L 38.8 34L 24.4 58L 10 58L 24.4 34L 10 10ZM 82 34L 53.2 34M 38.8 34L 24.4 34M 96.4 34L 154 34M 82 70L 82 154"></path></g></g></g><g id="g-root-cp_4_g-4_1hfpyn0x3qosl-fill" data-item-order="-460426" transform="translate(518, 164)"><g id="cp_4_g-4_1hfpyn0x3qosl-fill-merged" stroke="none" fill="#a6da37" fill-opacity="1"><g><path d="M82 10 H139.6L154 34L139.6 58 H82L96.4 34L82 10 M38.8 10 H67.6L82 34L67.6 58 H38.8L53.2 34L38.8 10 M10 10 H24.4L38.8 34L24.4 58 H10L24.4 34L10 10 M82 34 H53.2 M38.8 34 H24.4 M96.4 34 H154"></path></g></g></g><g id="g-root-cp_4_g-4_1hfpyn0x3qosl-stroke" data-item-order="-460426" transform="translate(518, 164)"><g id="cp_4_g-4_1hfpyn0x3qosl-stroke" fill="none" stroke-linecap="round" stroke-linejoin="round" stroke-miterlimit="4" stroke="#2c2c2c" stroke-width="2" stroke-opacity="1"><g><path d="M 82 10L 139.6 10L 154 34L 139.6 58L 82 58L 96.4 34L 82 10ZM 38.8 10L 67.6 10L 82 34L 67.6 58L 38.8 58L 53.2 34L 38.8 10ZM 10 10L 24.4 10L 38.8 34L 24.4 58L 10 58L 24.4 34L 10 10ZM 82 34L 53.2 34M 38.8 34L 24.4 34M 96.4 34L 154 34M 82 70L 82 226"></path></g></g></g><g id="g-root-cp_5_g-5_18k2ye4x3qpla-fill" data-item-order="-460410" transform="translate(686, 164)"><g id="cp_5_g-5_18k2ye4x3qpla-fill-merged" stroke="none" fill="#ffe711" fill-opacity="1"><g><path d="M82 10 H139.6L154 34L139.6 58 H82L96.4 34L82 10 M38.8 10 H67.6L82 34L67.6 58 H38.8L53.2 34L38.8 10 M10 10 H24.4L38.8 34L24.4 58 H10L24.4 34L10 10 M82 34 H53.2 M38.8 34 H24.4 M96.4 34 H154"></path></g></g></g><g id="g-root-cp_5_g-5_18k2ye4x3qpla-stroke" data-item-order="-460410" transform="translate(686, 164)"><g id="cp_5_g-5_18k2ye4x3qpla-stroke" fill="none" stroke-linecap="round" stroke-linejoin="round" stroke-miterlimit="4" stroke="#2c2c2c" stroke-width="2" stroke-opacity="1"><g><path d="M 82 10L 139.6 10L 154 34L 139.6 58L 82 58L 96.4 34L 82 10ZM 38.8 10L 67.6 10L 82 34L 67.6 58L 38.8 58L 53.2 34L 38.8 10ZM 10 10L 24.4 10L 38.8 34L 24.4 58L 10 58L 24.4 34L 10 10ZM 82 34L 53.2 34M 38.8 34L 24.4 34M 96.4 34L 154 34M 82 70L 82 154"></path></g></g></g><g id="g-root-cp_6_g-6_1449g9ox3qqdj-fill" data-item-order="-460394" transform="translate(854, 164)"><g id="cp_6_g-6_1449g9ox3qqdj-fill-merged" stroke="none" fill="#f79438" fill-opacity="1"><g><path d="M82 10 H139.6L154 34L139.6 58 H82L96.4 34L82 10 M38.8 10 H67.6L82 34L67.6 58 H38.8L53.2 34L38.8 10 M10 10 H24.4L38.8 34L24.4 58 H10L24.4 34L10 10 M82 34 H53.2 M38.8 34 H24.4 M96.4 34 H154"></path></g></g></g><g id="g-root-cp_6_g-6_1449g9ox3qqdj-stroke" data-item-order="-460394" transform="translate(854, 164)"><g id="cp_6_g-6_1449g9ox3qqdj-stroke" fill="none" stroke-linecap="round" stroke-linejoin="round" stroke-miterlimit="4" stroke="#2c2c2c" stroke-width="2" stroke-opacity="1"><g><path d="M 82 10L 139.6 10L 154 34L 139.6 58L 82 58L 96.4 34L 82 10ZM 38.8 10L 67.6 10L 82 34L 67.6 58L 38.8 58L 53.2 34L 38.8 10ZM 10 10L 24.4 10L 38.8 34L 24.4 58L 10 58L 24.4 34L 10 10ZM 82 34L 53.2 34M 38.8 34L 24.4 34M 96.4 34L 154 34M 82 70L 82 226"></path></g></g></g><g id="g-root-tx_riskscor_1hhldwcx3qnt2-fill" data-item-order="0" transform="translate(876.00830078125, 116)"><g id="tx_riskscor_1hhldwcx3qnt2-fill-merged" stroke="none" fill="#f79438" fill-opacity="1"><g><text style="font: bold 20px &quot;Roboto&quot;, sans-serif; white-space: pre;" transform="translate(59.99169921875, 22)" font-weight="bold" font-size="20px" font-family="'Roboto', sans-serif"><tspan x="-47.99" y="12" dominant-baseline="ideographic">Risk Score</tspan></text></g></g></g><g id="g-root-tx_riskscor_1hhldwcx3qnt2-stroke" data-item-order="0" transform="translate(876.00830078125, 116)"></g><g id="g-root-tx_scorehyb_1hhldwcx3qnt1-fill" data-item-order="0" transform="translate(692.4833374023438, 116)"><g id="tx_scorehyb_1hhldwcx3qnt1-fill-merged" stroke="none" fill="#ffe711" fill-opacity="1"><g><text style="font: bold 20px &quot;Roboto&quot;, sans-serif; white-space: pre;" transform="translate(75.51666259765625, 22)" font-weight="bold" font-size="20px" font-family="'Roboto', sans-serif"><tspan x="-63.52" y="12" dominant-baseline="ideographic">Score Hybride</tspan></text></g></g></g><g id="g-root-tx_scorehyb_1hhldwcx3qnt1-stroke" data-item-order="0" transform="translate(692.4833374023438, 116)"></g><g id="g-root-tx_isolatio_1lwsexox3qq6k-fill" data-item-order="0" transform="translate(518.0250244140625, 116)"><g id="tx_isolatio_1lwsexox3qq6k-fill-merged" stroke="none" fill="#a6da37" fill-opacity="1"><g><text style="font: bold 20px &quot;Roboto&quot;, sans-serif; white-space: pre;" transform="translate(81.9749755859375, 22)" font-weight="bold" font-size="20px" font-family="'Roboto', sans-serif"><tspan x="-69.97" y="12" dominant-baseline="ideographic">Isolation Forest</tspan></text></g></g></g><g id="g-root-tx_isolatio_1lwsexox3qq6k-stroke" data-item-order="0" transform="translate(518.0250244140625, 116)"></g><g id="g-root-tx_standard_1usff6kx3qpdv-fill" data-item-order="0" transform="translate(350.89166259765625, 116)"><g id="tx_standard_1usff6kx3qpdv-fill-merged" stroke="none" fill="#43dd93" fill-opacity="1"><g><text style="font: bold 20px &quot;Roboto&quot;, sans-serif; white-space: pre;" transform="translate(81.10833740234375, 22)" font-weight="bold" font-size="20px" font-family="'Roboto', sans-serif"><tspan x="-69.11" y="12" dominant-baseline="ideographic">StandardScaler</tspan></text></g></g></g><g id="g-root-tx_standard_1usff6kx3qpdv-stroke" data-item-order="0" transform="translate(350.89166259765625, 116)"></g><g id="g-root-tx_featuree_74vbwx3qosq-fill" data-item-order="0" transform="translate(199.64999389648438, 92)"><g id="tx_featuree_74vbwx3qosq-fill-merged" stroke="none" fill="#f4f4f4" fill-opacity="1"><g><text style="font: 20px &quot;Roboto&quot;, sans-serif; white-space: pre;" transform="translate(64.35000610351562, 34)" font-size="20px" font-family="'Roboto', sans-serif"><tspan x="-33.57" y="0" dominant-baseline="ideographic">Feature </tspan><tspan x="-52.35" y="24" dominant-baseline="ideographic">Engineering</tspan></text></g></g></g><g id="g-root-tx_featuree_74vbwx3qosq-stroke" data-item-order="0" transform="translate(199.64999389648438, 92)"></g><g id="g-root-tx_mtriques_mdlwv0x3qpkx-fill" data-item-order="0" transform="translate(36.724998474121094, 92)"><g id="tx_mtriques_mdlwv0x3qpkx-fill-merged" stroke="none" fill="#f4f4f4" fill-opacity="1"><g><text style="font: 20px &quot;Roboto&quot;, sans-serif; white-space: pre;" transform="translate(59.275001525878906, 34)" font-size="20px" font-family="'Roboto', sans-serif"><tspan x="-47.28" y="0" dominant-baseline="ideographic">Métriques </tspan><tspan x="-31.36" y="24" dominant-baseline="ideographic">Brutes</tspan></text></g></g></g><g id="g-root-tx_mtriques_mdlwv0x3qpkx-stroke" data-item-order="0" transform="translate(36.724998474121094, 92)"></g><g id="g-root-tx_pipeline_zp2f8cx3qo00-fill" data-item-order="0" transform="translate(261.41668701171875, 38)"><g id="tx_pipeline_zp2f8cx3qo00-fill-merged" stroke="none" fill="#f4f4f4" fill-opacity="1"><g><text style="font: bold 25px &quot;Roboto&quot;, sans-serif; white-space: pre;" transform="translate(254.58331298828125, 25)" font-weight="bold" font-size="25px" font-family="'Roboto', sans-serif"><tspan x="-242.58" y="15" dominant-baseline="ideographic">Pipeline de Détection d'Anomalies Système</tspan></text></g></g></g><g id="g-root-tx_pipeline_zp2f8cx3qo00-stroke" data-item-order="0" transform="translate(261.41668701171875, 38)"></g><g id="g-root-tx_collecte_18lydngx3qolr-fill" data-item-order="0" transform="translate(25.991661071777344, 320)"><g id="tx_collecte_18lydngx3qolr-fill-merged" stroke="none" fill="#4f91fc" fill-opacity="1"><g><text style="font: bold 20px &quot;Roboto&quot;, sans-serif; white-space: pre;" transform="translate(70.00833892822266, 34)" font-weight="bold" font-size="20px" font-family="'Roboto', sans-serif"><tspan x="-58.01" y="0" dominant-baseline="ideographic">Collecte des </tspan><tspan x="-41.78" y="24" dominant-baseline="ideographic">Données</tspan></text></g></g></g><g id="g-root-tx_collecte_18lydngx3qolr-stroke" data-item-order="0" transform="translate(25.991661071777344, 320)"></g><g id="g-root-tx_normalis_qvau8sx3qnt7-fill" data-item-order="0" transform="translate(354.0833435058594, 320)"><g id="tx_normalis_qvau8sx3qnt7-fill-merged" stroke="none" fill="#43dd93" fill-opacity="1"><g><text style="font: bold 20px &quot;Roboto&quot;, sans-serif; white-space: pre;" transform="translate(77.91665649414062, 34)" font-weight="bold" font-size="20px" font-family="'Roboto', sans-serif"><tspan x="-65.92" y="0" dominant-baseline="ideographic">Normalisation </tspan><tspan x="-60.43" y="24" dominant-baseline="ideographic">des Données</tspan></text></g></g></g><g id="g-root-tx_normalis_qvau8sx3qnt7-stroke" data-item-order="0" transform="translate(354.0833435058594, 320)"></g><g id="g-root-tx_fusionde_djubvgx3qpe7-fill" data-item-order="0" transform="translate(704.8499755859375, 320)"><g id="tx_fusionde_djubvgx3qpe7-fill-merged" stroke="none" fill="#ffe711" fill-opacity="1"><g><text style="font: bold 20px &quot;Roboto&quot;, sans-serif; white-space: pre;" transform="translate(63.1500244140625, 34)" font-weight="bold" font-size="20px" font-family="'Roboto', sans-serif"><tspan x="-51.15" y="0" dominant-baseline="ideographic">Fusion des </tspan><tspan x="-33.6" y="24" dominant-baseline="ideographic">Scores</tspan></text></g></g></g><g id="g-root-tx_fusionde_djubvgx3qpe7-stroke" data-item-order="0" transform="translate(704.8499755859375, 320)"></g><g id="g-root-tx_lesmtriq_1464vj0x3qpe0-fill" data-item-order="0" transform="translate(21.175003051757812, 380)"><g id="tx_lesmtriq_1464vj0x3qpe0-fill-merged" stroke="none" fill="#f4f4f4" fill-opacity="1"><g><text style="font: 15px &quot;Roboto&quot;, sans-serif; white-space: pre;" transform="translate(74.82499694824219, 46)" font-size="15px" font-family="'Roboto', sans-serif"><tspan x="-49.23" y="-18" dominant-baseline="ideographic">Les métriques </tspan><tspan x="-62.82" y="0" dominant-baseline="ideographic">brutes (CPU, RAM, </tspan><tspan x="-45.74" y="18" dominant-baseline="ideographic">Réseau) sont </tspan><tspan x="-35.89" y="36" dominant-baseline="ideographic">collectées</tspan></text></g></g></g><g id="g-root-tx_lesmtriq_1464vj0x3qpe0-stroke" data-item-order="0" transform="translate(21.175003051757812, 380)"></g><g id="g-root-tx_transfor_1464vj0x3qpe1-fill" data-item-order="0" transform="translate(182.18333435058594, 392)"><g id="tx_transfor_1464vj0x3qpe1-fill-merged" stroke="none" fill="#1ac3fb" fill-opacity="1"><g><text style="font: bold 20px &quot;Roboto&quot;, sans-serif; white-space: pre;" transform="translate(81.81666564941406, 34)" font-weight="bold" font-size="20px" font-family="'Roboto', sans-serif"><tspan x="-69.82" y="0" dominant-baseline="ideographic">Transformation </tspan><tspan x="-69.38" y="24" dominant-baseline="ideographic">des Indicateurs</tspan></text></g></g></g><g id="g-root-tx_transfor_1464vj0x3qpe1-stroke" data-item-order="0" transform="translate(182.18333435058594, 392)"></g><g id="g-root-tx_lesindic_qvau8sx3qnt8-fill" data-item-order="0" transform="translate(351.316650390625, 380)"><g id="tx_lesindic_qvau8sx3qnt8-fill-merged" stroke="none" fill="#f4f4f4" fill-opacity="1"><g><text style="font: 15px &quot;Roboto&quot;, sans-serif; white-space: pre;" transform="translate(80.683349609375, 46)" font-size="15px" font-family="'Roboto', sans-serif"><tspan x="-68.68" y="-18" dominant-baseline="ideographic">Les indicateurs sont </tspan><tspan x="-55.33" y="0" dominant-baseline="ideographic">normalisés pour </tspan><tspan x="-51.17" y="18" dominant-baseline="ideographic">uniformiser les </tspan><tspan x="-28.83" y="36" dominant-baseline="ideographic">échelles</tspan></text></g></g></g><g id="g-root-tx_lesindic_qvau8sx3qnt8-stroke" data-item-order="0" transform="translate(351.316650390625, 380)"></g><g id="g-root-tx_dtection_mfhc4cx3qolh-fill" data-item-order="0" transform="translate(523.691650390625, 392)"><g id="tx_dtection_mfhc4cx3qolh-fill-merged" stroke="none" fill="#a6da37" fill-opacity="1"><g><text style="font: bold 20px &quot;Roboto&quot;, sans-serif; white-space: pre;" transform="translate(76.308349609375, 34)" font-weight="bold" font-size="20px" font-family="'Roboto', sans-serif"><tspan x="-64.31" y="0" dominant-baseline="ideographic">Détection des </tspan><tspan x="-50.13" y="24" dominant-baseline="ideographic">Anomalies</tspan></text></g></g></g><g id="g-root-tx_dtection_mfhc4cx3qolh-stroke" data-item-order="0" transform="translate(523.691650390625, 392)"></g><g id="g-root-tx_lescorei_hzntzwx3qpds-fill" data-item-order="0" transform="translate(686.941650390625, 380)"><g id="tx_lescorei_hzntzwx3qpds-fill-merged" stroke="none" fill="#f4f4f4" fill-opacity="1"><g><text style="font: 15px &quot;Roboto&quot;, sans-serif; white-space: pre;" transform="translate(81.058349609375, 46)" font-size="15px" font-family="'Roboto', sans-serif"><tspan x="-50.36" y="-18" dominant-baseline="ideographic">Le score IA est </tspan><tspan x="-58.82" y="0" dominant-baseline="ideographic">fusionné avec les </tspan><tspan x="-69.06" y="18" dominant-baseline="ideographic">règles expertes pour </tspan><tspan x="-55.93" y="36" dominant-baseline="ideographic">un score hybride</tspan></text></g></g></g><g id="g-root-tx_lescorei_hzntzwx3qpds-stroke" data-item-order="0" transform="translate(686.941650390625, 380)"></g><g id="g-root-tx_calculdu_940tr0x3qq6h-fill" data-item-order="0" transform="translate(879.7999877929688, 392)"><g id="tx_calculdu_940tr0x3qq6h-fill-merged" stroke="none" fill="#f79438" fill-opacity="1"><g><text style="font: bold 20px &quot;Roboto&quot;, sans-serif; white-space: pre;" transform="translate(56.20001220703125, 34)" font-weight="bold" font-size="20px" font-family="'Roboto', sans-serif"><tspan x="-44.2" y="0" dominant-baseline="ideographic">Calcul du </tspan><tspan x="-33.32" y="24" dominant-baseline="ideographic">Risque</tspan></text></g></g></g><g id="g-root-tx_calculdu_940tr0x3qq6h-stroke" data-item-order="0" transform="translate(879.7999877929688, 392)"></g><g id="g-root-tx_lescoreh_4otspox3qnsy-fill" data-item-order="0" transform="translate(855.2999877929688, 452)"><g id="tx_lescoreh_4otspox3qnsy-fill-merged" stroke="none" fill="#f4f4f4" fill-opacity="1"><g><text style="font: 15px &quot;Roboto&quot;, sans-serif; white-space: pre;" transform="translate(80.70001220703125, 37)" font-size="15px" font-family="'Roboto', sans-serif"><tspan x="-68.18" y="-9" dominant-baseline="ideographic">Le score hybride est </tspan><tspan x="-68.7" y="9" dominant-baseline="ideographic">converti en un score </tspan><tspan x="-68.58" y="27" dominant-baseline="ideographic">de risque de 0 à 100</tspan></text></g></g></g><g id="g-root-tx_lescoreh_4otspox3qnsy-stroke" data-item-order="0" transform="translate(855.2999877929688, 452)"></g><g id="g-root-tx_lemodlei_mfhc4cx3qoli-fill" data-item-order="0" transform="translate(520.75830078125, 452)"><g id="tx_lemodlei_mfhc4cx3qoli-fill-merged" stroke="none" fill="#f4f4f4" fill-opacity="1"><g><text style="font: 15px &quot;Roboto&quot;, sans-serif; white-space: pre;" transform="translate(79.24169921875, 37)" font-size="15px" font-family="'Roboto', sans-serif"><tspan x="-67.24" y="-9" dominant-baseline="ideographic">Le modèle Isolation </tspan><tspan x="-58.66" y="9" dominant-baseline="ideographic">Forest calcule un </tspan><tspan x="-62.71" y="27" dominant-baseline="ideographic">score de déviation</tspan></text></g></g></g><g id="g-root-tx_lemodlei_mfhc4cx3qoli-stroke" data-item-order="0" transform="translate(520.75830078125, 452)"></g><g id="g-root-tx_lesdonne_zqbdekx3qq6a-fill" data-item-order="0" transform="translate(184.73333740234375, 452)"><g id="tx_lesdonne_zqbdekx3qq6a-fill-merged" stroke="none" fill="#f4f4f4" fill-opacity="1"><g><text style="font: 15px &quot;Roboto&quot;, sans-serif; white-space: pre;" transform="translate(79.26666259765625, 37)" font-size="15px" font-family="'Roboto', sans-serif"><tspan x="-67.27" y="-9" dominant-baseline="ideographic">Les données brutes </tspan><tspan x="-63.22" y="9" dominant-baseline="ideographic">sont transformées </tspan><tspan x="-59.13" y="27" dominant-baseline="ideographic">en 11 indicateurs</tspan></text></g></g></g><g id="g-root-tx_lesdonne_zqbdekx3qq6a-stroke" data-item-order="0" transform="translate(184.73333740234375, 452)"></g></g></g></svg>