<?xml version="1.0" encoding="utf-8" standalone="yes"?>
<!DOCTYPE svg PUBLIC "-//W3C//DTD SVG 1.1//EN" "http://www.w3.org/Graphics/SVG/1.1/DTD/svg11.dtd">
<svg style="fill:none;stroke:none;fill-rule:evenodd;clip-rule:evenodd;stroke-linecap:round;stroke-linejoin:round;stroke-miterlimit:1.5;" version="1.1" xmlns="http://www.w3.org/2000/svg" xmlns:xlink="http://www.w3.org/1999/xlink" width="1032" height="582" viewBox="0 0 1032 582"><style class="text-font-style fontImports" data-font-family="Roboto">@import url(https://fonts.googleapis.com/css2?family=Roboto:wght@400;700&amp;amp;display=block);</style><g id="items" style="isolation: isolate"><g id="blend" style="mix-blend-mode: normal"><g id="g-root-cp_1_g-1_1hgxrrgvfgidn-fill" data-item-order="-478186" transform="translate(14, 164)"><g id="cp_1_g-1_1hgxrrgvfgidn-fill-merged" stroke="none" fill="#4f91fc" fill-opacity="1"><g><path d="M82 10 H139.6L154 34L139.6 58 H82L96.4 34L82 10 M38.8 10 H67.6L82 34L67.6 58 H38.8L53.2 34L38.8 10 M10 10 H24.4L38.8 34L24.4 58 H10L24.4 34L10 10 M82 34 H53.2 M38.8 34 H24.4 M96.4 34 H154"></path></g></g></g><g id="g-root-cp_1_g-1_1hgxrrgvfgidn-stroke" data-item-order="-478186" transform="translate(14, 164)"><g id="cp_1_g-1_1hgxrrgvfgidn-stroke" fill="none" stroke-linecap="round" stroke-linejoin="round" stroke-miterlimit="4" stroke="#2c2c2c" stroke-width="2" stroke-opacity="1"><g><path d="M 82 10L 139.6 10L 154 34L 139.6 58L 82 58L 96.4 34L 82 10ZM 38.8 10L 67.6 10L 82 34L 67.6 58L 38.8 58L 53.2 34L 38.8 10ZM 10 10L 24.4 10L 38.8 34L 24.4 58L 10 58L 24.4 34L 10 10ZM 82 34L 53.2 34M 38.8 34L 24.4 34M 96.4 34L 154 34M 82 70L 82 154"></path></g></g></g><g id="g-root-cp_2_g-2_1hgxrrgvfgido-fill" data-item-order="-478170" transform="translate(182, 164)"><g id="cp_2_g-2_1hgxrrgvfgido-fill-merged" stroke="none" fill="#1ac3fb" fill-opacity="1"><g><path d="M82 10 H139.6L154 34L139.6 58 H82L96.4 34L82 10 M38.8 10 H67.6L82 34L67.6 58 H38.8L53.2 34L38.8 10 M10 10 H24.4L38.8 34L24.4 58 H10L24.4 34L10 10 M82 34 H53.2 M38.8 34 H24.4 M96.4 34 H154"></path></g></g></g><g id="g-root-cp_2_g-2_1hgxrrgvfgido-stroke" data-item-order="-478170" transform="translate(182, 164)"><g id="cp_2_g-2_1hgxrrgvfgido-stroke" fill="none" stroke-linecap="round" stroke-linejoin="round" stroke-miterlimit="4" stroke="#2c2c2c" stroke-width="2" stroke-opacity="1"><g><path d="M 82 10L 139.6 10L 154 34L 139.6 58L 82 58L 96.4 34L 82 10ZM 38.8 10L 67.6 10L 82 34L 67.6 58L 38.8 58L 53.2 34L 38.8 10ZM 10 10L 24.4 10L 38.8 34L 24.4 58L 10 58L 24.4 34L 10 10ZM 82 34L 53.2 34M 38.8 34L 24.4 34M 96.4 34L 154 34M 82 70L 82 226"></path></g></g></g><g id="g-root-cp_3_g-3_1hgxrrgvfgidp-fill" data-item-order="-478154" transform="translate(350, 164)"><g id="cp_3_g-3_1hgxrrgvfgidp-fill-merged" stroke="none" fill="#43dd93" fill-opacity="1"><g><path d="M82 10 H139.6L154 34L139.6 58 H82L96.4 34L82 10 M38.8 10 H67.6L82 34L67.6 58 H38.8L53.2 34L38.8 10 M10 10 H24.4L38.8 34L24.4 58 H10L24.4 34L10 10 M82 34 H53.2 M38.8 34 H24.4 M96.4 34 H154"></path></g></g></g><g id="g-root-cp_3_g-3_1hgxrrgvfgidp-stroke" data-item-order="-478154" transform="translate(350, 164)"><g id="cp_3_g-3_1hgxrrgvfgidp-stroke" fill="none" stroke-linecap="round" stroke-linejoin="round" stroke-miterlimit="4" stroke="#2c2c2c" stroke-width="2" stroke-opacity="1"><g><path d="M 82 10L 139.6 10L 154 34L 139.6 58L 82 58L 96.4 34L 82 10ZM 38.8 10L 67.6 10L 82 34L 67.6 58L 38.8 58L 53.2 34L 38.8 10ZM 10 10L 24.4 10L 38.8 34L 24.4 58L 10 58L 24.4 34L 10 10ZM 82 34L 53.2 34M 38.8 34L 24.4 34M 96.4 34L 154 34M 82 70L 82 154"></path></g></g></g><g id="g-root-cp_4_g-4_1hgxrrgvfgidq-fill" data-item-order="-478138" transform="translate(518, 164)"><g id="cp_4_g-4_1hgxrrgvfgidq-fill-merged" stroke="none" fill="#a6da37" fill-opacity="1"><g><path d="M82 10 H139.6L154 34L139.6 58 H82L96.4 34L82 10 M38.8 10 H67.6L82 34L67.6 58 H38.8L53.2 34L38.8 10 M10 10 H24.4L38.8 34L24.4 58 H10L24.4 34L10 10 M82 34 H53.2 M38.8 34 H24.4 M96.4 34 H154"></path></g></g></g><g id="g-root-cp_4_g-4_1hgxrrgvfgidq-stroke" data-item-order="-478138" transform="translate(518, 164)"><g id="cp_4_g-4_1hgxrrgvfgidq-stroke" fill="none" stroke-linecap="round" stroke-linejoin="round" stroke-miterlimit="4" stroke="#2c2c2c" stroke-width="2" stroke-opacity="1"><g><path d="M 82 10L 139.6 10L 154 34L 139.6 58L 82 58L 96.4 34L 82 10ZM 38.8 10L 67.6 10L 82 34L 67.6 58L 38.8 58L 53.2 34L 38.8 10ZM 10 10L 24.4 10L 38.8 34L 24.4 58L 10 58L 24.4 34L 10 10ZM 82 34L 53.2 34M 38.8 34L 24.4 34M 96.4 34L 154 34M 82 70L 82 226"></path></g></g></g><g id="g-root-cp_5_g-5_1hgxrrgvfgidr-fill" data-item-order="-478122" transform="translate(686, 164)"><g id="cp_5_g-5_1hgxrrgvfgidr-fill-merged" stroke="none" fill="#ffe711" fill-opacity="1"><g><path d="M82 10 H139.6L154 34L139.6 58 H82L96.4 34L82 10 M38.8 10 H67.6L82 34L67.6 58 H38.8L53.2 34L38.8 10 M10 10 H24.4L38.8 34L24.4 58 H10L24.4 34L10 10 M82 34 H53.2 M38.8 34 H24.4 M96.4 34 H154"></path></g></g></g><g id="g-root-cp_5_g-5_1hgxrrgvfgidr-stroke" data-item-order="-478122" transform="translate(686, 164)"><g id="cp_5_g-5_1hgxrrgvfgidr-stroke" fill="none" stroke-linecap="round" stroke-linejoin="round" stroke-miterlimit="4" stroke="#2c2c2c" stroke-width="2" stroke-opacity="1"><g><path d="M 82 10L 139.6 10L 154 34L 139.6 58L 82 58L 96.4 34L 82 10ZM 38.8 10L 67.6 10L 82 34L 67.6 58L 38.8 58L 53.2 34L 38.8 10ZM 10 10L 24.4 10L 38.8 34L 24.4 58L 10 58L 24.4 34L 10 10ZM 82 34L 53.2 34M 38.8 34L 24.4 34M 96.4 34L 154 34M 82 70L 82 154"></path></g></g></g><g id="g-root-cp_6_g-6_1lwr9vwvfgidc-fill" data-item-order="-478106" transform="translate(854, 164)"><g id="cp_6_g-6_1lwr9vwvfgidc-fill-merged" stroke="none" fill="#f79438" fill-opacity="1"><g><path d="M82 10 H139.6L154 34L139.6 58 H82L96.4 34L82 10 M38.8 10 H67.6L82 34L67.6 58 H38.8L53.2 34L38.8 10 M10 10 H24.4L38.8 34L24.4 58 H10L24.4 34L10 10 M82 34 H53.2 M38.8 34 H24.4 M96.4 34 H154"></path></g></g></g><g id="g-root-cp_6_g-6_1lwr9vwvfgidc-stroke" data-item-order="-478106" transform="translate(854, 164)"><g id="cp_6_g-6_1lwr9vwvfgidc-stroke" fill="none" stroke-linecap="round" stroke-linejoin="round" stroke-miterlimit="4" stroke="#2c2c2c" stroke-width="2" stroke-opacity="1"><g><path d="M 82 10L 139.6 10L 154 34L 139.6 58L 82 58L 96.4 34L 82 10ZM 38.8 10L 67.6 10L 82 34L 67.6 58L 38.8 58L 53.2 34L 38.8 10ZM 10 10L 24.4 10L 38.8 34L 24.4 58L 10 58L 24.4 34L 10 10ZM 82 34L 53.2 34M 38.8 34L 24.4 34M 96.4 34L 154 34M 82 70L 82 226"></path></g></g></g><g id="g-root-tx_riskscor_1hgxrrgvfgidm-fill" data-item-order="0" transform="translate(876.00830078125, 116)"><g id="tx_riskscor_1hgxrrgvfgidm-fill-merged" stroke="none" fill="#f79438" fill-opacity="1"><g><text style="font: bold 20px &quot;Roboto&quot;, sans-serif; white-space: pre;" transform="translate(59.99169921875, 22)" font-weight="bold" font-size="20px" font-family="'Roboto', sans-serif"><tspan x="-47.99" y="12" dominant-baseline="ideographic">Risk Score</tspan></text></g></g></g><g id="g-root-tx_riskscor_1hgxrrgvfgidm-stroke" data-item-order="0" transform="translate(876.00830078125, 116)"></g><g id="g-root-tx_scorehyb_1hgxrrgvfgidl-fill" data-item-order="0" transform="translate(692.4833374023438, 116)"><g id="tx_scorehyb_1hgxrrgvfgidl-fill-merged" stroke="none" fill="#ffe711" fill-opacity="1"><g><text style="font: bold 20px &quot;Roboto&quot;, sans-serif; white-space: pre;" transform="translate(75.51666259765625, 22)" font-weight="bold" font-size="20px" font-family="'Roboto', sans-serif"><tspan x="-63.52" y="12" dominant-baseline="ideographic">Score Hybride</tspan></text></g></g></g><g id="g-root-tx_scorehyb_1hgxrrgvfgidl-stroke" data-item-order="0" transform="translate(692.4833374023438, 116)"></g><g id="g-root-tx_isolatio_1hgxrrgvfgidk-fill" data-item-order="0" transform="translate(518.0250244140625, 116)"><g id="tx_isolatio_1hgxrrgvfgidk-fill-merged" stroke="none" fill="#a6da37" fill-opacity="1"><g><text style="font: bold 20px &quot;Roboto&quot;, sans-serif; white-space: pre;" transform="translate(81.9749755859375, 22)" font-weight="bold" font-size="20px" font-family="'Roboto', sans-serif"><tspan x="-69.97" y="12" dominant-baseline="ideographic">Isolation Forest</tspan></text></g></g></g><g id="g-root-tx_isolatio_1hgxrrgvfgidk-stroke" data-item-order="0" transform="translate(518.0250244140625, 116)"></g><g id="g-root-tx_lescoreh_1hhk8ukvfgg04-fill" data-item-order="0" transform="translate(854.1082763671875, 452)"><g id="tx_lescoreh_1hhk8ukvfgg04-fill-merged" stroke="none" fill="#f4f4f4" fill-opacity="1"><g><text style="font: 15px &quot;Roboto&quot;, sans-serif; white-space: pre;" transform="translate(81.89166259765625, 46)" font-size="15px" font-family="'Roboto', sans-serif"><tspan x="-62.99" y="-18" dominant-baseline="ideographic">The hybrid score is </tspan><tspan x="-69.89" y="0" dominant-baseline="ideographic">converted into a final </tspan><tspan x="-59.39" y="18" dominant-baseline="ideographic">risk score ranging </tspan><tspan x="-47.11" y="36" dominant-baseline="ideographic">from 0 to 100.</tspan></text></g></g></g><g id="g-root-tx_lescoreh_1hhk8ukvfgg04-stroke" data-item-order="0" transform="translate(854.1082763671875, 452)"></g><g id="g-root-tx_featuree_1hgxrrgvfgidi-fill" data-item-order="0" transform="translate(199.64999389648438, 92)"><g id="tx_featuree_1hgxrrgvfgidi-fill-merged" stroke="none" fill="#f4f4f4" fill-opacity="1"><g><text style="font: 20px &quot;Roboto&quot;, sans-serif; white-space: pre;" transform="translate(64.35000610351562, 34)" font-size="20px" font-family="'Roboto', sans-serif"><tspan x="-33.57" y="0" dominant-baseline="ideographic">Feature </tspan><tspan x="-52.35" y="24" dominant-baseline="ideographic">Engineering</tspan></text></g></g></g><g id="g-root-tx_featuree_1hgxrrgvfgidi-stroke" data-item-order="0" transform="translate(199.64999389648438, 92)"></g><g id="g-root-tx_mtriques_1hgxrrgvfgidh-fill" data-item-order="0" transform="translate(28.875, 116)"><g id="tx_mtriques_1hgxrrgvfgidh-fill-merged" stroke="none" fill="#f4f4f4" fill-opacity="1"><g><text style="font: 20px &quot;Roboto&quot;, sans-serif; white-space: pre;" transform="translate(67.125, 22)" font-size="20px" font-family="'Roboto', sans-serif"><tspan x="-55.13" y="12" dominant-baseline="ideographic">Raw Metrics</tspan></text></g></g></g><g id="g-root-tx_mtriques_1hgxrrgvfgidh-stroke" data-item-order="0" transform="translate(28.875, 116)"></g><g id="g-root-tx_pipeline_1hgxrrgvfgidg-fill" data-item-order="0" transform="translate(403.4833068847656, 38)"><g id="tx_pipeline_1hgxrrgvfgidg-fill-merged" stroke="none" fill="#f4f4f4" fill-opacity="1"><g><text style="font: bold 25px &quot;Roboto&quot;, sans-serif; white-space: pre;" transform="translate(112.51669311523438, 25)" font-weight="bold" font-size="25px" font-family="'Roboto', sans-serif"><tspan x="-100.52" y="15" dominant-baseline="ideographic">Pipeline Overview</tspan></text></g></g></g><g id="g-root-tx_pipeline_1hgxrrgvfgidg-stroke" data-item-order="0" transform="translate(403.4833068847656, 38)"></g><g id="g-root-tx_collecte_1lwr9vwvfgidd-fill" data-item-order="0" transform="translate(15.558334350585938, 320)"><g id="tx_collecte_1lwr9vwvfgidd-fill-merged" stroke="none" fill="#4f91fc" fill-opacity="1"><g><text style="font: bold 20px &quot;Roboto&quot;, sans-serif; white-space: pre;" transform="translate(80.44166564941406, 22)" font-weight="bold" font-size="20px" font-family="'Roboto', sans-serif"><tspan x="-68.44" y="12" dominant-baseline="ideographic">Data Collection</tspan></text></g></g></g><g id="g-root-tx_collecte_1lwr9vwvfgidd-stroke" data-item-order="0" transform="translate(15.558334350585938, 320)"></g><g id="g-root-tx_normalis_1lwr9vwvfgide-fill" data-item-order="0" transform="translate(356.60833740234375, 320)"><g id="tx_normalis_1lwr9vwvfgide-fill-merged" stroke="none" fill="#43dd93" fill-opacity="1"><g><text style="font: bold 20px &quot;Roboto&quot;, sans-serif; white-space: pre;" transform="translate(75.39166259765625, 34)" font-weight="bold" font-size="20px" font-family="'Roboto', sans-serif"><tspan x="-20.57" y="0" dominant-baseline="ideographic">Data </tspan><tspan x="-63.39" y="24" dominant-baseline="ideographic">Normalization</tspan></text></g></g></g><g id="g-root-tx_normalis_1lwr9vwvfgide-stroke" data-item-order="0" transform="translate(356.60833740234375, 320)"></g><g id="g-root-tx_fusionde_1lwr9vwvfgidf-fill" data-item-order="0" transform="translate(697.5250244140625, 320)"><g id="tx_fusionde_1lwr9vwvfgidf-fill-merged" stroke="none" fill="#ffe711" fill-opacity="1"><g><text style="font: bold 20px &quot;Roboto&quot;, sans-serif; white-space: pre;" transform="translate(70.4749755859375, 22)" font-weight="bold" font-size="20px" font-family="'Roboto', sans-serif"><tspan x="-58.47" y="12" dominant-baseline="ideographic">Score Fusion</tspan></text></g></g></g><g id="g-root-tx_fusionde_1lwr9vwvfgidf-stroke" data-item-order="0" transform="translate(697.5250244140625, 320)"></g><g id="g-root-tx_lesmtriq_1lwr9vwvfgidg-fill" data-item-order="0" transform="translate(19.71666717529297, 356)"><g id="tx_lesmtriq_1lwr9vwvfgidg-fill-merged" stroke="none" fill="#f4f4f4" fill-opacity="1"><g><text style="font: 15px &quot;Roboto&quot;, sans-serif; white-space: pre;" transform="translate(76.28333282470703, 37)" font-size="15px" font-family="'Roboto', sans-serif"><tspan x="-63.6" y="-9" dominant-baseline="ideographic">Raw metrics (CPU, </tspan><tspan x="-64.28" y="9" dominant-baseline="ideographic">RAM, Network) are </tspan><tspan x="-32.27" y="27" dominant-baseline="ideographic">collected</tspan></text></g></g></g><g id="g-root-tx_lesmtriq_1lwr9vwvfgidg-stroke" data-item-order="0" transform="translate(19.71666717529297, 356)"></g><g id="g-root-tx_lescorei_1hhk8ukvfgg00-fill" data-item-order="0" transform="translate(689.8916625976562, 356)"><g id="tx_lescorei_1hhk8ukvfgg00-fill-merged" stroke="none" fill="#f4f4f4" fill-opacity="1"><g><text style="font: 15px &quot;Roboto&quot;, sans-serif; white-space: pre;" transform="translate(78.10833740234375, 46)" font-size="15px" font-family="'Roboto', sans-serif"><tspan x="-51.17" y="-18" dominant-baseline="ideographic">The AI score is </tspan><tspan x="-66.11" y="0" dominant-baseline="ideographic">merged with expert </tspan><tspan x="-55.41" y="18" dominant-baseline="ideographic">rules to create a </tspan><tspan x="-44.71" y="36" dominant-baseline="ideographic">hybrid score.</tspan></text></g></g></g><g id="g-root-tx_lescorei_1hhk8ukvfgg00-stroke" data-item-order="0" transform="translate(689.8916625976562, 356)"></g><g id="g-root-tx_transfor_1lwr9vwvfgidh-fill" data-item-order="0" transform="translate(182.375, 392)"><g id="tx_transfor_1lwr9vwvfgidh-fill-merged" stroke="none" fill="#1ac3fb" fill-opacity="1"><g><text style="font: bold 20px &quot;Roboto&quot;, sans-serif; white-space: pre;" transform="translate(81.625, 34)" font-weight="bold" font-size="20px" font-family="'Roboto', sans-serif"><tspan x="-34.07" y="0" dominant-baseline="ideographic">Feature </tspan><tspan x="-69.63" y="24" dominant-baseline="ideographic">Transformation</tspan></text></g></g></g><g id="g-root-tx_transfor_1lwr9vwvfgidh-stroke" data-item-order="0" transform="translate(182.375, 392)"></g><g id="g-root-tx_lesindic_1lwr9vwvfgidi-fill" data-item-order="0" transform="translate(355.20831298828125, 380)"><g id="tx_lesindic_1lwr9vwvfgidi-fill-merged" stroke="none" fill="#f4f4f4" fill-opacity="1"><g><text style="font: 15px &quot;Roboto&quot;, sans-serif; white-space: pre;" transform="translate(76.79168701171875, 46)" font-size="15px" font-family="'Roboto', sans-serif"><tspan x="-47.09" y="-18" dominant-baseline="ideographic">Indicators are </tspan><tspan x="-47.02" y="0" dominant-baseline="ideographic">normalized to </tspan><tspan x="-63.82" y="18" dominant-baseline="ideographic">standardize scales </tspan><tspan x="-64.79" y="36" dominant-baseline="ideographic">across all features.</tspan></text></g></g></g><g id="g-root-tx_lesindic_1lwr9vwvfgidi-stroke" data-item-order="0" transform="translate(355.20831298828125, 380)"></g><g id="g-root-tx_dtection_1lwr9vwvfgidj-fill" data-item-order="0" transform="translate(544.1749877929688, 392)"><g id="tx_dtection_1lwr9vwvfgidj-fill-merged" stroke="none" fill="#a6da37" fill-opacity="1"><g><text style="font: bold 20px &quot;Roboto&quot;, sans-serif; white-space: pre;" transform="translate(55.82501220703125, 34)" font-weight="bold" font-size="20px" font-family="'Roboto', sans-serif"><tspan x="-40.14" y="0" dominant-baseline="ideographic">Anomaly </tspan><tspan x="-43.82" y="24" dominant-baseline="ideographic">Detection</tspan></text></g></g></g><g id="g-root-tx_dtection_1lwr9vwvfgidj-stroke" data-item-order="0" transform="translate(544.1749877929688, 392)"></g><g id="g-root-tx_calculdu_1hhk8ukvfgg01-fill" data-item-order="0" transform="translate(873.36669921875, 392)"><g id="tx_calculdu_1hhk8ukvfgg01-fill-merged" stroke="none" fill="#f79438" fill-opacity="1"><g><text style="font: bold 20px &quot;Roboto&quot;, sans-serif; white-space: pre;" transform="translate(62.63330078125, 34)" font-weight="bold" font-size="20px" font-family="'Roboto', sans-serif"><tspan x="-19.53" y="0" dominant-baseline="ideographic">Risk </tspan><tspan x="-50.63" y="24" dominant-baseline="ideographic">Calculation</tspan></text></g></g></g><g id="g-root-tx_calculdu_1hhk8ukvfgg01-stroke" data-item-order="0" transform="translate(873.36669921875, 392)"></g><g id="g-root-tx_lesdonne_1hhk8ukvfgg02-fill" data-item-order="0" transform="translate(184.2166748046875, 452)"><g id="tx_lesdonne_1hhk8ukvfgg02-fill-merged" stroke="none" fill="#f4f4f4" fill-opacity="1"><g><text style="font: 15px &quot;Roboto&quot;, sans-serif; white-space: pre;" transform="translate(79.7833251953125, 37)" font-size="15px" font-family="'Roboto', sans-serif"><tspan x="-40.47" y="-9" dominant-baseline="ideographic">Raw data is </tspan><tspan x="-67.78" y="9" dominant-baseline="ideographic">transformed into 11 </tspan><tspan x="-34.97" y="27" dominant-baseline="ideographic">indicators</tspan></text></g></g></g><g id="g-root-tx_lesdonne_1hhk8ukvfgg02-stroke" data-item-order="0" transform="translate(184.2166748046875, 452)"></g><g id="g-root-tx_lemodlei_1hhk8ukvfgg03-fill" data-item-order="0" transform="translate(519.933349609375, 452)"><g id="tx_lemodlei_1hhk8ukvfgg03-fill-merged" stroke="none" fill="#f4f4f4" fill-opacity="1"><g><text style="font: 15px &quot;Roboto&quot;, sans-serif; white-space: pre;" transform="translate(80.066650390625, 46)" font-size="15px" font-family="'Roboto', sans-serif"><tspan x="-68.07" y="-18" dominant-baseline="ideographic">The Isolation Forest </tspan><tspan x="-64.63" y="0" dominant-baseline="ideographic">model calculates a </tspan><tspan x="-61.15" y="18" dominant-baseline="ideographic">deviation score to </tspan><tspan x="-55.2" y="36" dominant-baseline="ideographic">identify outliers.</tspan></text></g></g></g><g id="g-root-tx_lemodlei_1hhk8ukvfgg03-stroke" data-item-order="0" transform="translate(519.933349609375, 452)"></g><g id="g-root-tx_standard_1hgxrrgvfgidj-fill" data-item-order="0" transform="translate(350.89166259765625, 116)"><g id="tx_standard_1hgxrrgvfgidj-fill-merged" stroke="none" fill="#43dd93" fill-opacity="1"><g><text style="font: bold 20px &quot;Roboto&quot;, sans-serif; white-space: pre;" transform="translate(81.10833740234375, 22)" font-weight="bold" font-size="20px" font-family="'Roboto', sans-serif"><tspan x="-69.11" y="12" dominant-baseline="ideographic">StandardScaler</tspan></text></g></g></g><g id="g-root-tx_standard_1hgxrrgvfgidj-stroke" data-item-order="0" transform="translate(350.89166259765625, 116)"></g></g></g></svg>